# xmcd
#
# Track frame offsets: 
#        150
#        14114
#        32537
#        52501
#        69931
#        90447
#        110786
#        129113
#        143480
#        163553
#        183656
#        200440
#
# Disc length: 3039 seconds
#
# Revision: 1
# Processed by: cddbd v1.5.2PL0 Copyright (c) Steve Scherf et al.
# Submitted via: ExactAudioCopy v0.90b4
#
DISCID=940bdd0c
DTITLE=Little Dragon - Little Dragon
DYEAR=2007
DGENRE=Trip-Hop
TTITLE0=Twice
TTITLE1=Turn Left
TTITLE2=No Love
TTITLE3=Recommendation
TTITLE4=Constant Surprises
TTITLE5=Forever
TTITLE6=After The Rain
TTITLE7=Place To Belong
TTITLE8=Stormy Weather
TTITLE9=Test
TTITLE10=Wink
TTITLE11=Scribbled Paper
EXTD=YEAR: 2007
EXTT0=
EXTT1=
EXTT2=
EXTT3=
EXTT4=
EXTT5=
EXTT6=
EXTT7=
EXTT8=
EXTT9=
EXTT10=
EXTT11=
PLAYORDER=
